<?xml version="1.0" standalone="no"?>
<!DOCTYPE svg PUBLIC "-//W3C//DTD SVG 20010904//EN"
 "http://www.w3.org/TR/2001/REC-SVG-20010904/DTD/svg10.dtd">
<svg version="1.0" xmlns="http://www.w3.org/2000/svg"
 width="846.000000pt" height="1098.000000pt" viewBox="0 0 846.000000 1098.000000"
 preserveAspectRatio="xMidYMid meet">
<metadata>
Created by potrace 1.16, written by Peter Selinger 2001-2019
</metadata>
<g transform="translate(0.000000,1098.000000) scale(0.100000,-0.100000)"
fill="#000000" stroke="none">
<path d="M0 6685 c0 -2412 4 -4295 9 -4295 14 0 275 88 353 119 122 49 185 87
231 140 7 7 31 32 55 56 46 47 51 59 25 74 -10 5 -15 13 -10 17 4 4 15 0 26
-10 18 -16 21 -16 54 6 83 53 123 76 147 83 14 4 38 18 53 31 16 13 41 24 55
25 32 0 114 57 118 81 1 12 -10 17 -54 20 -48 4 -60 10 -88 40 -31 34 -55 97
-68 183 -8 47 -40 202 -62 295 -8 36 -14 83 -13 105 1 22 -8 71 -20 109 -16
52 -21 94 -21 178 0 87 -4 119 -20 156 -30 71 -85 415 -100 627 -10 151 0 206
56 313 36 69 40 96 25 149 -7 25 -5 40 10 67 23 43 24 65 4 102 -8 16 -15 36
-15 45 0 19 -52 102 -93 148 -46 54 -67 112 -74 206 -7 93 10 171 53 257 27
53 95 125 131 139 40 15 119 10 170 -10 72 -28 124 -34 191 -21 46 9 71 9 108
0 102 -24 99 -25 128 12 14 19 26 39 26 44 0 12 54 89 102 146 33 40 37 48 29
76 -7 22 -6 32 2 35 9 3 9 8 -1 19 -8 10 -10 29 -6 53 8 54 -2 80 -40 103 -24
14 -35 29 -38 51 -2 17 -1 34 3 38 5 5 11 25 14 45 6 35 5 37 -22 35 -20 -2
-28 -8 -29 -22 -1 -33 -22 -75 -38 -75 -18 0 -29 17 -34 49 -3 24 32 111 46
111 4 0 15 15 25 32 l19 33 13 -31 c9 -22 24 -34 53 -43 23 -8 43 -21 46 -30
17 -66 24 -111 23 -141 -2 -39 1 -40 88 -25 49 8 62 -3 69 -60 3 -21 10 -43
15 -48 6 -6 11 -26 11 -43 0 -18 5 -36 10 -39 6 -4 10 -16 8 -28 -2 -18 2 -22
22 -20 14 1 41 3 60 4 40 2 172 -25 222 -46 19 -7 52 -30 73 -49 22 -20 44
-35 50 -33 20 7 28 108 27 387 -1 287 -6 391 -23 422 -13 24 -11 51 4 45 11
-4 38 15 37 28 -1 28 2 35 11 29 8 -4 8 0 0 15 -7 11 -14 21 -16 21 -3 0 -14
-18 -25 -40 -12 -23 -25 -38 -30 -35 -16 10 -11 53 8 64 9 6 11 11 5 11 -7 0
-13 11 -13 25 0 29 8 32 26 8 11 -16 13 -13 9 22 -2 22 -4 49 -5 60 l-1 20
-10 -20 c-6 -14 -8 0 -4 45 3 35 10 69 15 74 6 6 10 31 10 56 0 25 5 51 12 58
6 6 13 22 14 34 22 164 36 250 49 281 21 52 19 58 -12 42 -33 -17 -50 -9 -29
14 18 20 21 47 6 56 -24 15 -9 86 44 214 33 77 51 170 37 184 -6 6 -11 18 -11
27 0 8 -14 42 -30 74 -23 46 -30 72 -30 118 0 40 -7 72 -20 99 -12 22 -30 77
-41 122 -21 84 -48 121 -97 133 -30 8 -69 -18 -86 -59 -16 -38 -62 -80 -91
-83 -71 -8 -96 -7 -107 4 -17 17 -65 15 -72 -4 -9 -24 -7 -105 4 -146 9 -33
16 -39 53 -48 23 -6 53 -14 67 -18 58 -17 110 -148 96 -244 -9 -62 -76 -138
-152 -174 -68 -32 -114 -70 -114 -94 0 -23 -20 -70 -38 -89 -13 -14 -14 -77
-1 -96 4 -5 10 -24 13 -41 5 -23 2 -34 -14 -49 -11 -10 -20 -24 -20 -31 0 -7
-10 -24 -22 -39 -19 -21 -37 -27 -104 -36 l-81 -11 -54 35 c-78 49 -101 53
-126 19 -42 -57 -37 -104 19 -170 15 -18 28 -37 28 -41 0 -9 16 -16 85 -35 38
-11 40 -14 38 -48 -2 -32 2 -37 35 -54 72 -37 102 -64 96 -88 -3 -14 1 -28 11
-36 9 -7 13 -21 10 -31 -4 -13 -1 -19 9 -19 48 0 -23 -166 -91 -214 -38 -26
-52 -30 -135 -33 -51 -2 -136 -6 -188 -9 -105 -5 -115 -1 -147 56 -11 19 -35
45 -54 58 -40 28 -57 26 -234 -22 -89 -24 -137 -21 -175 10 -31 27 -90 141
-90 175 0 10 -4 20 -9 24 -5 3 -12 31 -16 63 -3 31 -13 91 -20 132 -17 88 -36
279 -40 401 -2 48 -8 113 -14 145 -15 82 -14 167 5 242 15 61 15 68 -4 146
-12 44 -26 104 -33 131 -8 33 -12 167 -14 386 -1 185 -4 340 -8 345 -3 5 -8
122 -11 259 -4 138 -11 291 -16 340 -6 50 -12 124 -15 165 -2 41 -11 156 -19
255 -8 99 -20 257 -26 350 -6 94 -14 206 -18 250 l-7 80 -102 3 -103 3 0
-4296z m2101 426 c21 -17 24 -30 27 -100 6 -112 0 -129 -44 -137 -54 -10 -106
19 -128 72 -17 40 -16 43 4 80 22 41 87 103 106 104 7 0 22 -9 35 -19z m-1159
-587 c136 -72 116 -213 -35 -243 -205 -41 -327 32 -277 164 14 38 29 50 96 79
70 30 158 30 216 0z"/>
<path d="M4774 10961 c10 -11 41 -25 69 -31 29 -7 61 -21 72 -31 11 -9 38 -19
59 -21 32 -2 40 -7 41 -24 3 -36 43 -68 108 -85 34 -9 98 -26 141 -38 109 -29
126 -28 166 14 32 33 34 39 38 121 4 76 2 89 -14 101 -14 10 -90 13 -357 13
-335 0 -340 0 -323 -19z"/>
<path d="M7975 10958 c-4 -13 -19 -33 -34 -46 -14 -13 -45 -40 -67 -61 -23
-21 -60 -47 -81 -59 -40 -20 -41 -20 -109 -1 -70 19 -97 17 -122 -7 -7 -8 -20
-14 -28 -14 -24 0 -16 -19 24 -58 21 -20 51 -58 68 -84 16 -27 32 -48 37 -48
4 0 7 -8 7 -18 0 -19 39 -62 56 -62 5 0 15 -9 22 -20 7 -11 21 -20 31 -20 16
0 21 -10 27 -45 3 -25 4 -55 1 -67 -4 -13 2 -33 16 -52 15 -21 22 -46 22 -78
0 -25 3 -44 8 -41 4 2 7 -16 7 -40 0 -25 6 -62 14 -83 15 -43 35 -237 34 -324
-2 -84 12 -263 21 -275 11 -15 11 -95 0 -117 -7 -14 -7 -24 2 -34 7 -8 12 -36
11 -62 -1 -85 -9 -187 -16 -203 -4 -9 -4 -58 -1 -110 8 -118 7 -173 -5 -205
-9 -24 9 -110 30 -139 4 -5 10 -22 13 -36 5 -21 13 -26 37 -27 29 -1 30 1 30
42 0 23 6 65 14 92 20 67 25 455 7 549 -5 26 -5 48 0 51 10 6 10 176 1 344 -4
63 -4 140 0 170 4 30 10 98 12 150 6 120 11 175 25 276 7 45 11 99 11 120 -2
80 8 221 18 269 6 27 8 53 6 57 -3 4 2 30 10 57 10 35 11 52 3 60 -14 14 22
84 38 72 5 -5 32 -9 60 -9 27 0 51 -5 53 -11 5 -16 39 -13 46 4 3 8 14 15 24
15 11 0 25 7 32 15 7 8 25 15 41 15 29 0 29 1 29 60 l0 60 -239 0 -240 0 -6
-22z"/>
<path d="M1916 10333 c-3 -3 -22 -9 -43 -12 -30 -5 -38 -11 -45 -36 -11 -42 8
-84 41 -91 14 -3 32 -8 40 -10 22 -7 91 18 106 39 7 11 24 25 37 31 14 7 24
22 26 38 3 22 0 26 -17 21 -12 -3 -28 0 -36 7 -8 6 -23 9 -33 6 -11 -4 -31 -2
-45 3 -14 5 -28 7 -31 4z"/>
<path d="M5205 9935 c-62 -17 -211 -33 -330 -34 -49 -1 -124 -7 -165 -14 -63
-11 -311 -14 -548 -6 -13 1 -36 -10 -50 -24 -52 -48 -73 -56 -122 -47 -25 4
-48 6 -51 4 -3 -2 -75 -6 -159 -9 -89 -3 -159 -10 -167 -16 -7 -6 -13 -24 -13
-40 0 -17 -12 -42 -30 -63 -27 -31 -29 -37 -18 -55 14 -22 71 -30 83 -11 13
21 23 8 30 -42 12 -75 9 -129 -8 -146 -13 -13 -16 -12 -25 5 -8 15 -6 26 9 49
23 35 27 69 3 36 -20 -28 -35 -28 -84 3 -47 30 -62 31 -58 7 2 -10 -9 -33 -25
-51 -15 -18 -27 -40 -27 -50 0 -9 -27 -43 -61 -74 -44 -42 -59 -63 -54 -75 5
-13 4 -14 -6 -5 -10 10 -18 6 -41 -19 -21 -24 -28 -27 -28 -14 0 19 28 67 47
79 7 4 26 27 43 51 25 37 27 45 14 50 -33 13 -51 4 -103 -51 -49 -51 -52 -57
-36 -69 14 -11 15 -18 6 -47 -7 -19 -9 -52 -5 -76 7 -43 -1 -52 -21 -24 -10
14 -13 10 -19 -28 -6 -35 -10 -40 -16 -24 -4 11 -6 23 -4 26 2 4 -3 12 -11 19
-12 10 -15 9 -15 -4 0 -9 -4 -16 -10 -16 -5 0 -10 11 -10 24 0 13 -3 31 -6 40
-5 12 0 16 19 16 14 0 29 4 32 10 3 5 0 7 -8 4 -8 -3 -17 3 -21 13 -7 17 -8
17 -21 -1 -14 -18 -16 -18 -50 -2 -48 23 -43 43 22 85 29 19 49 39 46 46 -6
18 -65 27 -94 16 -13 -5 -17 -10 -9 -11 14 0 -13 -15 -109 -60 -25 -11 -55
-20 -68 -20 -23 0 -53 -42 -53 -75 0 -9 -25 -66 -55 -127 -51 -101 -55 -112
-40 -128 19 -21 19 -31 1 -24 -8 3 -16 -2 -19 -13 -14 -48 -17 -83 -11 -108 6
-23 8 -25 16 -11 11 20 28 21 28 0 0 -8 -16 -22 -35 -30 -19 -8 -58 -36 -86
-64 -45 -42 -50 -51 -39 -64 11 -14 8 -17 -20 -22 -17 -4 -34 -14 -37 -23 -4
-9 -15 -24 -25 -34 -11 -11 -18 -29 -17 -40 2 -26 -8 -53 -33 -87 -10 -14 -20
-35 -23 -48 -3 -12 -7 -32 -10 -44 -6 -27 12 -98 25 -98 6 0 10 4 10 9 0 5 9
11 20 14 11 3 20 1 20 -4 0 -5 -7 -9 -15 -9 -8 0 -19 -9 -25 -20 -8 -15 -6
-21 9 -29 14 -8 20 -7 24 3 6 14 54 29 97 30 17 1 26 8 30 26 4 19 13 26 35
28 39 4 75 22 75 39 0 7 6 13 14 13 8 0 32 21 52 46 21 25 40 41 42 35 6 -18
19 -12 26 11 5 22 6 22 19 4 13 -18 14 -17 34 8 14 17 24 23 28 16 5 -8 12 -4
22 9 8 12 21 21 29 21 9 0 22 7 30 15 9 8 27 16 42 16 59 3 76 7 86 21 6 8 19
17 28 21 12 4 15 12 11 23 -7 18 20 44 45 44 9 0 4 -8 -12 -21 -25 -20 -26
-22 -9 -35 17 -13 16 -17 -20 -85 -21 -39 -36 -74 -33 -77 9 -8 57 39 67 66 9
23 39 31 39 10 0 -7 10 2 22 21 12 19 24 29 26 22 2 -7 -2 -20 -10 -29 -14
-16 -25 -92 -14 -92 3 0 13 15 22 33 29 58 73 96 121 103 27 4 43 11 43 20 0
8 8 14 17 14 9 0 13 3 10 7 -4 3 0 14 9 24 18 20 42 11 84 -30 14 -13 19 -21
13 -17 -7 4 -22 0 -34 -8 -12 -8 -26 -13 -33 -12 -6 2 -8 1 -3 -1 4 -3 4 -9 1
-15 -5 -7 3 -9 22 -4 16 4 41 10 57 13 15 3 27 11 27 18 0 29 27 22 39 -10 12
-33 12 -33 74 -31 34 1 68 -2 75 -7 7 -6 38 -11 68 -12 l56 -1 -7 32 c-5 27
-2 35 16 44 26 14 32 8 31 -29 -1 -40 20 -45 49 -10 13 16 29 29 36 29 7 0 13
4 13 8 0 5 -19 8 -42 8 -48 -1 -62 18 -24 35 20 10 30 9 50 -4 14 -9 31 -14
39 -11 18 6 29 -42 20 -86 -4 -24 0 -36 17 -55 12 -13 24 -41 27 -62 6 -43 29
-93 43 -93 6 0 10 -7 10 -15 0 -8 7 -15 15 -15 8 0 15 5 15 10 0 14 27 12 33
-2 3 -8 6 -7 6 4 1 9 6 20 12 24 7 4 9 0 5 -14 -6 -19 -3 -20 54 -16 34 2 66
7 72 10 6 4 14 0 19 -7 8 -12 12 -11 22 3 12 15 14 15 25 -3 14 -23 32 -25 32
-4 0 16 2 17 48 18 19 0 27 -4 26 -16 -1 -12 6 -17 22 -17 13 0 24 -5 24 -11
0 -5 -4 -7 -10 -4 -5 3 -10 2 -10 -4 0 -16 34 -18 46 -3 9 12 17 13 50 2 21
-7 47 -20 57 -28 15 -13 23 -14 48 -5 30 12 63 3 80 -20 4 -5 16 -3 28 4 17
11 25 11 41 1 11 -6 27 -12 35 -12 17 0 20 -25 5 -35 -15 -9 -1 -27 16 -21 8
3 14 1 14 -4 0 -5 10 -10 23 -12 14 -2 23 -11 25 -26 2 -16 8 -22 18 -18 9 3
14 -1 14 -12 1 -16 2 -15 15 1 13 18 14 18 35 -3 18 -18 24 -20 31 -9 7 11 11
12 17 1 5 -7 16 -10 25 -6 12 4 17 1 17 -11 0 -9 4 -13 10 -10 5 3 12 -6 16
-20 4 -16 12 -24 22 -23 19 4 34 -53 26 -94 -3 -15 -2 -33 2 -40 10 -15 14
-33 16 -71 1 -18 4 -24 9 -15 6 9 10 8 15 -6 4 -10 2 -21 -4 -25 -6 -3 -12
-22 -14 -41 -2 -26 -7 -35 -20 -34 -11 1 -18 -5 -18 -15 0 -9 -9 -31 -20 -48
-17 -29 -18 -33 -3 -33 8 0 22 8 29 18 12 15 15 15 24 2 13 -20 13 -57 -1 -65
-7 -5 -4 -13 8 -25 13 -13 22 -15 31 -7 10 8 14 5 19 -11 7 -28 24 -29 20 -1
-1 17 4 22 25 24 16 2 38 7 50 11 13 4 29 7 36 6 7 -2 12 8 12 27 0 16 5 33
10 36 6 3 10 24 10 46 0 21 5 40 10 40 6 1 16 2 22 3 23 2 21 37 -1 43 -27 7
-27 25 0 41 20 13 20 14 2 28 -17 14 -16 14 14 9 37 -7 53 10 30 33 -14 13
-14 18 -1 44 13 25 13 28 -1 28 -8 0 -15 -5 -15 -11 0 -6 -14 -9 -32 -7 -27 2
-33 -1 -39 -22 -5 -17 -7 -19 -8 -7 -2 28 19 59 34 53 15 -5 38 51 33 81 -6
41 31 51 60 15 11 -14 12 -14 12 1 0 9 5 17 11 17 6 0 8 -8 4 -19 -3 -11 -1
-22 5 -26 18 -11 11 -25 -12 -22 -13 2 -17 2 -10 0 6 -3 12 -8 12 -12 0 -4 19
-7 43 -7 23 0 50 -4 60 -8 10 -5 17 -4 17 3 0 6 -7 11 -15 11 -8 0 -15 5 -15
10 0 17 58 -18 76 -45 9 -13 13 -29 9 -35 -3 -5 1 -13 10 -16 16 -7 46 18 58
46 4 11 7 10 12 -7 6 -19 54 -40 56 -24 8 61 3 95 -12 85 -6 -3 -7 6 -3 23 9
39 14 45 30 39 8 -3 26 -1 39 4 22 9 24 13 15 31 -14 26 -3 40 14 17 7 -10 24
-15 43 -14 18 1 30 -2 27 -6 -3 -4 4 -8 15 -8 10 0 22 6 24 13 3 7 6 4 6 -6 1
-10 5 -16 10 -12 5 3 12 1 15 -4 4 -5 2 -13 -4 -16 -6 -4 0 -15 15 -27 14 -10
25 -28 25 -38 0 -10 6 -20 14 -23 11 -5 16 -53 6 -77 -1 -3 -2 -21 -3 -40 -2
-31 -5 -35 -27 -32 -23 3 -24 3 -7 -10 26 -19 35 -95 13 -104 -11 -4 -16 -16
-14 -40 3 -43 -9 -54 -22 -20 -13 35 -32 24 -30 -18 3 -49 1 -56 -15 -50 -10
4 -15 0 -15 -10 0 -9 -7 -19 -15 -22 -17 -7 -20 -35 -4 -51 6 -6 9 -23 7 -39
-2 -24 -7 -29 -27 -26 -26 2 -50 -22 -51 -51 0 -11 -9 -21 -19 -24 -19 -5 -19
-6 5 -31 28 -32 31 -52 6 -45 -12 3 -22 -4 -30 -21 -15 -34 -28 -33 -41 4 -5
17 -15 30 -22 30 -6 0 -9 -7 -5 -15 4 -11 -1 -15 -19 -15 -13 0 -26 4 -29 9
-3 5 -15 7 -25 4 -15 -4 -19 -13 -18 -39 1 -18 -2 -32 -8 -31 -5 1 -10 17 -10
35 0 24 -4 32 -17 32 -10 0 -18 -5 -18 -11 0 -5 4 -8 9 -5 5 3 8 -5 7 -19 -1
-25 -19 -34 -31 -15 -3 6 -17 -3 -31 -19 -31 -38 -30 -46 3 -24 15 10 24 13
21 8 -4 -6 -2 -17 3 -25 7 -12 11 -12 17 -2 5 8 8 0 8 -22 -1 -33 -2 -34 -23
-21 -18 13 -22 12 -27 -2 -6 -16 27 -56 49 -59 5 -1 14 -2 19 -3 5 0 3 -8 -4
-16 -15 -18 -5 -35 21 -35 11 0 23 -10 28 -23 5 -13 16 -29 25 -36 9 -7 13
-18 10 -23 -3 -5 3 -18 15 -29 21 -20 25 -31 22 -58 -4 -26 8 -44 22 -33 21
18 33 -1 33 -51 l-1 -48 -19 23 c-12 14 -17 17 -13 6 3 -9 0 -19 -9 -22 -19
-7 -77 5 -86 18 -4 6 -37 11 -72 12 -36 1 -72 7 -80 13 -8 7 -34 15 -58 17
-69 8 -82 10 -102 19 -11 5 -21 3 -26 -5 -6 -9 -13 -9 -28 -1 -30 16 -53 14
-46 -4 7 -18 -22 -21 -29 -2 -4 8 -8 8 -14 2 -4 -5 -51 -10 -105 -10 -53 0
-96 -2 -96 -5 1 -17 -4 -21 -15 -12 -15 13 -83 19 -93 9 -3 -3 -13 0 -21 8
-19 19 -33 19 -33 0 0 -18 -17 -20 -22 -3 -2 6 -24 13 -48 15 -24 2 -47 7 -50
13 -3 5 -17 7 -30 5 -72 -11 -106 -19 -113 -29 -5 -7 -12 -5 -21 7 -12 16 -24
18 -81 13 -37 -3 -69 -7 -71 -9 -2 -2 -5 -13 -7 -25 -3 -20 -32 -51 -48 -52
-4 0 -6 7 -5 16 0 9 -5 19 -13 22 -10 3 -12 0 -8 -12 4 -9 3 -16 -2 -16 -19 0
-71 -90 -71 -124 0 -29 -4 -36 -19 -36 -10 0 -21 -9 -24 -20 -3 -12 -14 -20
-26 -20 -13 0 -19 5 -15 14 4 10 -3 13 -24 11 -16 -1 -33 -4 -38 -7 -5 -3 -26
-8 -46 -12 -27 -5 -36 -11 -31 -21 3 -9 -1 -15 -11 -15 -9 0 -16 5 -16 10 0 6
-13 10 -29 10 -19 0 -35 8 -45 22 -11 15 -19 18 -28 12 -17 -13 -87 -12 -90 1
-2 6 9 10 24 10 15 1 31 5 35 10 4 4 0 5 -9 2 -9 -3 -30 -1 -47 6 -24 9 -31
17 -31 38 0 19 -6 28 -21 32 -11 3 -23 14 -25 25 -3 10 -19 26 -35 36 -16 9
-29 20 -29 24 0 4 -24 7 -52 8 -167 3 -212 5 -220 10 -10 6 -87 14 -186 18
-39 1 -67 7 -72 15 -4 8 -12 11 -17 8 -5 -3 -15 -2 -23 3 -9 5 -19 5 -27 -1
-8 -8 -23 -7 -46 0 -47 16 -103 17 -121 2 -8 -7 -23 -11 -33 -10 -22 3 -50 -9
-82 -33 -33 -25 -49 -10 -17 17 33 29 33 35 -3 35 -20 0 -36 -9 -49 -25 -11
-14 -27 -25 -37 -25 -9 0 -16 -7 -14 -17 3 -36 -1 -54 -13 -52 -27 3 -38 -2
-38 -16 0 -8 -6 -14 -12 -12 -8 1 -13 -9 -12 -28 0 -16 -4 -33 -10 -37 -19
-12 21 -20 43 -8 30 16 46 2 25 -21 -9 -10 -13 -19 -8 -19 5 0 14 8 21 19 14
23 55 32 80 17 10 -6 40 -11 68 -12 27 -1 51 -7 53 -13 2 -6 11 -11 21 -11 9
0 22 -5 28 -11 5 -5 30 -10 54 -11 24 0 49 -4 55 -9 7 -6 16 -9 20 -8 5 1 25
1 43 0 27 -1 32 -4 23 -13 -19 -19 -14 -30 8 -18 16 9 20 8 20 -5 0 -8 -7 -15
-15 -15 -7 0 -18 -6 -22 -13 -13 -23 -60 -30 -67 -10 -6 15 -8 15 -19 0 -11
-15 -33 -19 -162 -32 -39 -4 -88 -15 -94 -21 -2 -2 -10 1 -18 7 -8 7 -13 8
-13 1 0 -14 -43 -23 -51 -10 -5 8 -12 7 -23 -4 -21 -22 -87 -33 -97 -17 -6 10
-10 10 -23 0 -8 -7 -29 -13 -46 -13 -24 -1 -37 -10 -60 -41 -31 -42 -30 -55 4
-99 38 -48 93 -78 144 -78 26 0 61 -2 77 -4 17 -2 38 -4 48 -5 9 0 17 -9 18
-18 0 -11 3 -13 6 -5 6 15 53 -25 53 -45 0 -7 8 -13 19 -13 10 0 21 -9 24 -20
3 -13 17 -22 36 -26 17 -4 36 -13 42 -20 6 -8 20 -14 29 -14 10 0 20 -7 22
-16 2 -12 17 -18 53 -20 57 -5 246 -13 288 -13 20 -1 27 -6 27 -20 0 -21 45
-55 60 -46 6 4 28 7 51 7 25 0 43 6 46 14 3 8 12 14 20 14 8 0 35 14 60 30 24
17 58 32 74 34 16 1 32 5 35 9 3 3 13 3 21 0 20 -8 80 61 98 113 8 25 14 48
13 52 -2 9 13 44 26 60 5 8 12 24 13 35 2 12 8 24 13 25 6 2 10 12 10 23 0 10
5 19 11 19 6 0 9 7 5 15 -6 16 7 20 80 28 22 3 49 0 58 -5 10 -6 27 -11 39
-13 12 -2 32 -7 45 -10 14 -5 22 -3 22 4 0 6 5 11 10 11 6 0 10 -11 10 -24 0
-14 5 -28 10 -31 6 -3 10 -17 10 -31 0 -13 5 -24 11 -24 7 0 9 -10 5 -24 -3
-14 -2 -28 4 -31 5 -3 10 -13 10 -22 0 -9 7 -21 16 -28 9 -6 18 -27 19 -46 1
-19 8 -46 15 -59 8 -14 14 -33 15 -42 1 -10 9 -26 17 -35 10 -11 15 -30 13
-48 -3 -16 -2 -22 1 -12 3 9 15 17 26 17 11 0 18 -5 16 -12 -9 -25 15 -36 40
-20 21 13 24 13 36 -3 12 -17 14 -17 39 -1 14 10 23 24 21 31 -3 7 6 21 20 30
14 10 26 24 26 31 0 18 18 18 36 -1 9 -8 24 -15 34 -15 10 0 20 -7 23 -14 3
-8 22 -18 42 -22 20 -3 39 -13 42 -20 7 -20 27 -17 49 7 18 20 18 21 -6 39
-31 23 -19 38 15 20 17 -9 23 -19 20 -31 -4 -11 1 -22 13 -28 17 -9 18 -7 14
14 -2 14 1 32 8 40 13 16 8 19 -35 16 -17 -1 -17 0 3 9 14 6 31 6 40 1 9 -4
23 -6 31 -3 8 2 19 -1 25 -9 6 -8 29 -15 51 -16 22 -1 67 -6 100 -12 64 -12
118 -14 203 -7 28 3 52 1 52 -3 0 -4 20 -8 45 -7 25 0 45 3 45 7 0 4 10 9 23
11 12 2 21 9 19 16 -1 9 2 11 10 6 20 -13 38 -13 38 -2 0 7 21 9 60 5 33 -3
60 -1 60 4 0 16 18 9 23 -8 4 -14 5 -15 6 -2 1 11 9 14 31 11 17 -2 32 -8 35
-12 3 -5 19 -2 36 7 22 11 27 18 19 28 -8 9 -4 11 16 7 18 -3 25 -1 20 6 -3 6
1 18 10 26 8 9 12 16 7 17 -4 0 5 5 20 9 22 7 33 4 48 -11 26 -26 39 -24 39 6
0 14 5 25 11 25 6 0 8 -8 4 -19 -3 -10 0 -31 6 -47 l12 -29 9 34 c11 39 13 38
22 -12 5 -27 4 -37 -3 -32 -6 3 -11 -1 -11 -9 0 -9 8 -16 18 -16 35 -1 52 -24
45 -63 -4 -24 -2 -37 6 -37 6 0 11 -5 11 -11 0 -7 -9 -9 -21 -6 -14 4 -18 2
-12 -4 11 -11 5 -69 -8 -69 -5 0 -9 -11 -9 -25 0 -14 -7 -28 -15 -31 -8 -4
-15 -12 -15 -20 0 -8 -6 -11 -15 -8 -9 4 -15 0 -15 -10 0 -9 -6 -16 -12 -16
-10 0 -9 -3 1 -9 11 -7 9 -11 -8 -20 -11 -7 -21 -18 -21 -26 0 -14 -12 -19
-32 -16 -5 0 -8 -6 -8 -14 0 -18 -14 -19 -41 -5 -16 9 -22 6 -37 -21 -9 -18
-25 -40 -34 -51 -10 -10 -18 -31 -18 -46 0 -15 -5 -33 -12 -40 -9 -9 -9 -15
-1 -23 14 -14 -12 -69 -33 -69 -15 0 -19 -16 -5 -24 12 -8 -41 -116 -57 -116
-7 0 -20 -9 -29 -20 -10 -11 -23 -20 -29 -20 -8 0 -11 -15 -9 -41 2 -30 -1
-39 -10 -35 -21 8 -38 -21 -41 -71 -2 -33 0 -43 9 -34 6 6 16 11 21 11 6 0 -2
-11 -17 -25 -31 -29 -34 -43 -12 -51 15 -6 21 -34 8 -34 -20 1 -40 28 -40 53
0 34 -7 41 -30 33 -13 -5 -14 -9 -5 -15 10 -6 9 -14 -2 -36 -15 -29 -13 -45 5
-45 6 0 7 5 4 10 -3 6 -2 10 4 10 12 0 31 -32 31 -53 0 -7 -11 -20 -25 -27
-14 -7 -25 -19 -25 -27 0 -7 -7 -13 -15 -13 -8 0 -15 7 -15 15 0 8 -4 15 -10
15 -5 0 -10 -7 -10 -15 0 -8 5 -15 10 -15 6 0 10 -7 10 -16 0 -10 -6 -14 -14
-11 -10 4 -12 -3 -10 -24 5 -40 -9 -37 -25 6 -9 27 -18 35 -37 35 -13 0 -24
-4 -24 -10 0 -5 -7 -10 -15 -10 -8 0 -15 -5 -15 -10 0 -6 7 -10 16 -8 9 2 23
-8 32 -21 16 -24 16 -24 -5 -13 -27 15 -33 15 -33 2 0 -5 4 -9 9 -7 15 4 81
-71 81 -93 0 -11 -5 -19 -12 -17 -6 1 -14 -6 -16 -15 -2 -10 1 -18 7 -18 6 0
11 5 11 12 0 8 3 9 10 2 18 -18 -17 -74 -47 -74 -18 0 -24 4 -19 15 3 9 0 15
-9 15 -8 0 -12 -8 -10 -19 4 -22 -27 -35 -44 -18 -8 8 -11 8 -11 -1 0 -7 5
-12 10 -12 6 0 10 -4 10 -10 0 -5 -9 -10 -21 -10 -17 0 -20 5 -18 35 2 19 -2
40 -9 47 -17 17 -15 28 6 29 10 0 12 3 5 6 -7 2 -13 12 -13 20 0 14 -3 14 -20
-2 -11 -10 -20 -24 -20 -32 0 -7 -7 -13 -15 -13 -8 0 -15 4 -15 9 0 5 -10 11
-22 14 -19 5 -20 8 -7 23 12 15 12 17 -1 12 -8 -3 -25 -2 -36 3 -26 9 -64 1
-64 -15 -1 -6 -9 -21 -19 -34 -19 -22 -32 -29 -30 -14 3 20 -5 34 -46 77 -45
46 -65 51 -65 15 0 -13 -7 -17 -25 -16 -17 1 -25 7 -25 19 0 9 -4 17 -10 17
-5 0 -10 -7 -10 -15 0 -9 -9 -15 -25 -15 -14 0 -25 5 -25 10 0 6 -18 18 -40
27 -22 10 -40 23 -40 30 0 7 -7 13 -15 13 -14 0 -14 -3 0 -30 9 -17 20 -28 24
-25 12 7 22 -20 12 -31 -7 -8 -31 -84 -31 -98 0 -3 6 -6 14 -6 8 0 18 -4 21
-10 3 -5 0 -7 -8 -4 -8 3 -18 0 -22 -6 -5 -8 -10 -8 -20 0 -8 7 -18 9 -24 6
-5 -3 -11 -2 -13 4 -1 5 -43 21 -93 35 -49 14 -99 30 -110 35 -84 36 -157 40
-183 9 -31 -38 -90 -70 -117 -63 -14 3 -25 10 -25 14 0 4 -14 13 -30 19 -16 5
-30 7 -30 4 0 -3 -8 1 -17 9 -30 26 -62 31 -88 14 -13 -9 -31 -16 -40 -16 -9
0 -18 -6 -21 -13 -5 -15 -7 -15 -77 -18 -26 -1 -50 -6 -53 -11 -3 -5 -15 -6
-25 -3 -12 4 -31 -1 -47 -11 -28 -19 -66 -35 -140 -59 -51 -16 -116 -9 -108
11 3 7 -4 20 -15 28 -13 9 -23 29 -26 53 -6 54 -10 63 -27 57 -8 -3 -30 -7
-48 -8 -18 -2 -41 -4 -50 -5 -10 0 -18 -9 -18 -19 0 -26 -20 -42 -52 -42 -15
0 -31 -6 -35 -12 -4 -7 -15 -13 -23 -13 -25 0 -49 -64 -45 -123 4 -57 11 -75
26 -67 5 4 9 -3 9 -13 0 -11 7 -22 15 -26 8 -3 15 -2 15 3 0 13 61 6 70 -8 6
-11 8 -11 12 0 4 11 10 11 31 2 23 -11 27 -10 27 2 0 13 18 20 43 16 4 0 7 4
7 9 0 5 4 9 9 7 5 -1 16 7 24 17 13 17 19 18 58 8 24 -7 64 -12 89 -12 44 -1
123 6 128 10 1 1 5 3 10 4 4 1 12 4 17 8 6 3 37 9 70 13 33 4 65 10 70 14 15
9 175 11 175 2 0 -4 24 -8 53 -8 28 0 73 -2 99 -4 26 -3 49 -2 50 2 2 5 32 4
68 -1 44 -6 66 -6 71 1 4 7 13 7 27 -2 17 -11 28 -11 51 -2 17 6 32 8 35 5 12
-12 5 -43 -11 -49 -27 -10 -53 -41 -53 -63 0 -11 -4 -20 -10 -20 -5 0 -18 -7
-29 -16 -17 -15 -71 -24 -153 -26 -23 0 -35 -5 -31 -11 4 -7 -12 -8 -48 -4
-30 4 -81 2 -114 -4 -33 -6 -71 -12 -85 -12 -21 -2 -24 -7 -25 -40 -2 -43 -15
-64 -15 -22 0 21 -3 25 -13 17 -7 -6 -23 -9 -35 -5 -29 7 -27 -5 4 -41 22 -25
28 -27 47 -17 24 12 75 12 92 0 6 -4 31 -9 55 -10 25 -1 52 -8 61 -16 9 -7 46
-16 82 -19 63 -5 67 -4 67 16 0 17 4 20 21 15 13 -4 27 -1 38 9 16 15 19 15
31 1 7 -8 25 -15 40 -15 15 0 35 -9 45 -20 10 -11 28 -20 39 -21 12 0 15 -3 9
-6 -28 -11 -12 -25 21 -20 35 6 63 -11 48 -29 -4 -4 0 -3 9 4 13 9 22 6 52
-22 20 -19 37 -39 37 -46 0 -9 -7 -7 -21 6 -20 18 -20 18 -14 -11 4 -17 9 -37
11 -46 4 -16 30 -19 52 -5 7 4 12 1 12 -8 0 -9 -4 -16 -10 -16 -5 0 -10 -9
-10 -20 0 -13 7 -20 20 -20 11 0 20 -4 20 -10 0 -5 7 -10 16 -10 13 0 14 3 5
14 -9 10 -8 15 3 19 8 3 16 -2 19 -14 3 -10 12 -19 21 -19 12 0 15 6 10 25 -4
15 -2 25 5 25 6 0 11 -11 11 -24 0 -13 7 -26 15 -29 17 -7 29 8 19 24 -3 6 0
15 7 20 12 7 11 9 -1 10 -10 0 -8 3 5 8 20 9 45 -3 45 -21 0 -6 -7 -5 -15 2
-12 10 -15 10 -15 -1 0 -28 18 -45 36 -34 17 11 40 57 26 52 -4 -1 -8 3 -9 8
-2 10 29 10 57 -1 11 -4 7 -11 -15 -29 -17 -13 -25 -24 -19 -25 6 0 16 -11 22
-25 10 -22 15 -24 32 -15 16 8 18 8 14 -4 -8 -20 -44 -28 -44 -10 0 8 -4 14
-10 14 -5 0 -10 -8 -10 -19 0 -10 -9 -21 -20 -24 -13 -3 -20 0 -20 8 0 23 -21
28 -27 7 -3 -13 -10 -19 -20 -15 -12 5 -14 1 -8 -18 4 -13 11 -26 14 -29 4 -3
2 -15 -5 -28 -8 -17 -13 -20 -17 -9 -3 8 -1 19 4 24 7 7 2 12 -16 15 -30 6
-45 -10 -23 -26 13 -10 14 -15 4 -28 -9 -12 -16 -14 -23 -7 -7 7 -15 1 -24
-20 -10 -22 -21 -31 -37 -31 -19 0 -22 4 -17 21 5 15 4 19 -4 15 -12 -8 -15 5
-3 20 4 5 -3 -1 -15 -13 -13 -12 -23 -31 -23 -43 0 -24 -9 -26 -24 -4 -14 18
-47 9 -39 -12 3 -8 0 -14 -6 -14 -6 0 -11 8 -11 18 0 11 -10 24 -22 30 -18 8
-19 11 -5 11 21 1 24 41 3 41 -8 0 -17 8 -19 18 -3 12 -5 10 -6 -7 -1 -19 -5
-22 -25 -17 -30 8 -56 -2 -56 -20 0 -8 -11 -19 -25 -24 -17 -6 -23 -14 -18
-26 5 -14 3 -14 -16 -3 -22 15 -28 29 -11 29 17 0 12 70 -5 77 -9 3 -19 2 -23
-2 -4 -4 -1 -10 6 -12 20 -7 14 -22 -7 -16 -19 5 -38 -24 -71 -112 -6 -16 -14
-23 -25 -19 -10 4 -15 0 -15 -13 0 -28 -35 -57 -60 -50 -13 3 -20 0 -20 -9 0
-12 -3 -12 -13 -3 -22 21 -18 49 10 60 32 12 27 19 -9 12 -16 -3 -28 -12 -28
-19 0 -8 -8 -15 -17 -15 -10 -1 -30 -2 -45 -3 -27 -2 -53 -16 -29 -16 7 0 -4
-16 -25 -35 -38 -36 -56 -44 -53 -22 4 34 -1 49 -14 39 -9 -8 -22 -6 -46 5
-32 16 -34 16 -50 -6 -17 -22 -19 -23 -49 -7 -17 9 -33 12 -36 7 -3 -5 3 -11
14 -14 20 -5 20 -6 -1 -42 -16 -27 -24 -33 -30 -23 -6 10 -12 9 -23 -7 -13
-17 -15 -18 -16 -3 0 9 5 20 10 23 6 3 10 11 10 18 0 8 -3 8 -11 0 -6 -6 -18
-9 -25 -6 -8 3 -14 0 -14 -6 0 -6 -7 -11 -15 -11 -9 0 -12 -6 -9 -17 5 -17 5
-17 -6 0 -14 21 -30 22 -30 2 0 -8 -7 -15 -15 -15 -9 0 -12 6 -9 15 4 10 0 15
-10 15 -9 0 -19 7 -22 15 -5 13 -9 13 -26 1 -32 -22 -77 -3 -75 32 2 21 -3 27
-18 27 -11 0 -23 4 -27 10 -5 6 -12 5 -20 -3 -16 -16 -28 -15 -28 2 0 17 -38
28 -43 12 -3 -6 -2 10 1 37 3 31 1 47 -7 47 -6 0 -11 -8 -11 -17 0 -15 -2 -16
-10 -3 -6 9 -13 11 -17 5 -8 -10 -49 -35 -58 -35 -3 0 -3 11 1 25 8 33 -29 85
-59 82 -18 -2 -22 2 -19 26 2 19 -2 27 -13 27 -8 0 -15 7 -15 15 0 8 -7 15
-15 15 -8 0 -15 5 -15 11 0 5 10 9 22 7 38 -5 31 20 -12 42 -33 17 -39 24 -30
35 9 11 7 16 -10 25 -11 6 -24 9 -28 6 -4 -3 -14 -1 -22 4 -9 5 -19 5 -26 -1
-8 -7 -15 -1 -22 19 -8 22 -6 37 9 68 19 41 23 71 13 98 -9 25 -20 19 -19 -11
0 -22 -9 -31 -58 -55 -33 -16 -62 -27 -65 -23 -4 3 0 10 8 15 12 7 7 11 -18
16 -22 4 -31 11 -28 20 3 7 1 16 -4 19 -6 4 -10 14 -10 25 0 10 -7 21 -16 24
-23 9 -27 8 -20 -9 3 -8 1 -15 -4 -15 -13 0 -13 27 0 35 19 12 10 27 -12 22
-12 -4 -28 -1 -35 5 -9 7 -14 6 -19 -6 -6 -15 -8 -15 -20 1 -13 17 -15 17 -28
1 -21 -27 -28 -21 -20 17 3 19 2 35 -3 35 -16 0 -32 -22 -26 -36 6 -16 -5 -18
-25 -6 -7 5 -10 15 -7 24 6 16 -39 43 -56 32 -18 -11 -59 6 -59 24 0 10 -5 23
-12 30 -9 9 -8 12 5 12 26 0 20 19 -8 30 -14 5 -25 14 -25 20 0 18 -15 11 -25
-12 -6 -12 -16 -23 -22 -26 -18 -5 -16 24 3 43 10 10 13 22 8 33 -7 16 -7 16
-11 -1 -3 -10 -10 -17 -16 -16 -29 3 -35 -3 -34 -36 1 -24 5 -34 13 -31 7 3
15 -2 18 -10 7 -19 32 -18 40 2 8 20 26 9 26 -17 0 -15 -7 -19 -38 -19 -31 0
-38 -4 -38 -20 0 -11 4 -20 8 -20 4 0 8 -19 7 -42 l-1 -43 -11 35 c-6 19 -15
38 -20 41 -5 4 -7 15 -5 25 2 11 -4 28 -14 38 -10 11 -18 29 -18 40 0 33 -26
110 -38 114 -14 4 -28 -24 -37 -75 -4 -24 -11 -43 -16 -43 -12 0 -43 -33 -47
-51 -3 -14 -26 -35 -45 -42 -5 -1 -10 -13 -11 -26 0 -13 -10 -29 -21 -35 -26
-15 -54 -48 -55 -64 0 -8 9 -16 20 -19 28 -7 26 -33 -3 -30 -13 1 -21 -3 -20
-10 2 -7 -4 -13 -12 -13 -14 0 -45 -59 -45 -86 0 -8 8 -14 19 -14 14 0 17 -6
14 -25 -3 -13 -12 -30 -19 -36 -12 -9 -14 -7 -12 11 2 13 -2 25 -8 27 -14 5
-25 -45 -12 -53 5 -3 6 -15 2 -26 -4 -15 -3 -18 6 -13 8 5 11 3 8 -6 -3 -8
-15 -13 -28 -11 -22 4 -23 1 -18 -42 3 -26 2 -48 -2 -51 -4 -2 -5 -27 -3 -55
4 -54 -7 -65 -25 -25 -6 14 -18 25 -27 25 -13 0 -13 -3 -3 -21 11 -17 10 -22
-7 -35 -23 -17 -21 -52 3 -70 10 -7 12 -16 6 -25 -12 -20 -17 -40 -16 -77 1
-29 -2 -32 -26 -30 -18 2 -27 -2 -30 -14 -2 -12 3 -18 16 -18 25 0 31 -7 25
-29 -3 -13 -11 -17 -24 -14 -23 6 -23 3 -4 -33 8 -16 15 -23 15 -16 0 6 5 12
10 12 6 0 10 -25 10 -56 0 -48 -2 -55 -14 -45 -13 11 -14 6 -10 -33 3 -29 1
-46 -5 -46 -6 0 -11 -9 -11 -20 0 -11 -4 -20 -10 -20 -5 0 -10 8 -10 17 0 15
-3 14 -22 -5 l-22 -22 21 -15 c14 -10 19 -22 16 -36 -4 -15 -8 -17 -14 -8 -13
22 -23 1 -12 -24 22 -45 24 -60 8 -53 -23 8 -19 -27 5 -49 24 -21 26 -35 5
-35 -12 0 -14 -11 -10 -56 4 -37 2 -53 -5 -49 -15 9 -12 -21 4 -34 18 -15 18
-98 -1 -105 -23 -9 -15 -36 12 -36 18 0 26 -7 31 -25 3 -14 4 -32 0 -40 -3 -9
3 -20 14 -27 29 -18 24 -33 -10 -33 -16 0 -30 3 -30 8 0 4 -7 7 -15 7 -19 0
-38 -37 -32 -61 4 -16 2 -17 -15 -8 -12 6 -17 17 -14 26 3 8 6 24 6 34 0 11 3
18 8 16 4 -3 22 3 40 13 l32 18 -25 16 c-13 9 -26 16 -27 16 -2 0 -12 -16 -22
-35 -11 -19 -30 -42 -42 -50 -32 -21 -30 -34 5 -46 19 -7 33 -21 40 -41 10
-27 14 -30 41 -24 22 4 32 1 36 -9 4 -8 14 -15 23 -16 11 0 9 -3 -6 -9 -30
-12 -32 -65 -3 -80 11 -6 27 -24 35 -40 13 -26 13 -30 1 -30 -8 0 -20 14 -28
30 -11 26 -17 30 -39 25 -19 -4 -28 -1 -32 9 -4 11 -20 16 -47 16 -35 0 -42
-4 -51 -26 -12 -32 -5 -42 17 -23 14 11 18 10 34 -10 9 -13 22 -21 28 -17 14
8 34 -28 26 -47 -3 -8 0 -18 7 -23 7 -4 15 -2 17 4 4 14 38 16 47 2 3 -5 0
-18 -7 -29 -10 -16 -10 -27 0 -54 18 -49 15 -57 -18 -57 -16 0 -30 4 -30 8 0
5 -16 13 -35 19 -28 9 -35 8 -35 -3 0 -7 11 -21 25 -30 13 -9 27 -25 31 -36 3
-11 12 -17 20 -14 19 7 33 -24 23 -51 -9 -24 -52 -32 -64 -13 -4 6 -25 22 -48
37 -31 19 -45 23 -57 15 -9 -5 -30 -7 -46 -4 -26 5 -27 3 -16 -11 8 -9 20 -13
28 -10 8 3 14 -1 14 -10 0 -9 16 -18 43 -23 39 -9 42 -11 42 -43 1 -31 7 -40
51 -66 14 -9 15 -15 6 -32 -12 -22 -64 -53 -89 -53 -17 0 -17 -9 2 -30 14 -15
13 -19 -5 -35 -20 -18 -20 -17 -21 16 -1 19 0 46 1 61 1 25 -1 27 -39 25 -26
-1 -47 5 -60 17 -19 17 -21 17 -64 -9 -25 -14 -48 -33 -51 -42 -5 -13 -1 -15
29 -10 28 5 37 2 45 -14 8 -14 21 -19 54 -19 50 0 76 -21 59 -48 -5 -9 -18
-19 -29 -22 -32 -9 -84 -44 -84 -57 0 -6 5 -15 10 -18 6 -4 8 -15 5 -25 -5
-17 17 -33 41 -29 39 7 44 -14 11 -52 -27 -33 -66 -47 -78 -28 -4 7 -24 12
-46 11 -21 0 -78 -2 -126 -2 -99 -2 -157 -20 -157 -49 0 -30 21 -39 85 -37 78
4 125 -4 125 -19 0 -6 9 -20 20 -30 25 -22 26 -52 3 -59 -10 -3 -46 -35 -81
-70 -34 -36 -67 -66 -73 -68 -13 -4 0 -38 15 -38 16 0 86 64 86 79 0 6 9 11
20 11 11 0 20 6 20 14 0 12 23 43 70 91 10 11 23 32 29 47 7 20 19 29 46 34
31 6 50 24 25 24 -21 0 -9 31 15 40 17 6 25 17 25 33 0 13 9 32 20 42 11 10
20 26 20 37 0 10 5 18 11 18 5 0 17 16 25 35 8 19 20 35 28 35 20 0 45 32 29
37 -18 6 -16 20 7 43 11 11 20 28 20 39 0 10 7 24 15 31 8 7 15 21 15 30 0 33
11 48 31 43 15 -4 19 0 19 21 0 17 -4 25 -11 20 -7 -4 -9 1 -7 12 2 11 10 18
17 16 6 -1 21 18 32 43 11 25 25 45 31 45 17 0 1 -87 -22 -125 -11 -18 -20
-44 -20 -57 0 -32 -54 -137 -91 -178 -16 -17 -29 -37 -29 -44 0 -14 -34 -82
-53 -105 -7 -9 -18 -27 -24 -41 -6 -14 -32 -53 -58 -88 -37 -49 -45 -66 -36
-75 15 -15 34 7 63 70 19 43 49 68 63 55 5 -4 5 1 2 11 -4 11 1 24 13 34 10 9
17 20 14 25 -3 4 -1 8 4 8 5 0 19 27 31 60 12 33 28 60 35 60 14 0 14 1 79
141 43 92 67 189 67 269 0 26 -3 30 -19 25 -14 -4 -20 0 -24 17 -4 12 -2 27 4
33 11 11 57 -37 81 -85 7 -14 21 -37 31 -52 10 -15 29 -60 43 -100 14 -40 34
-89 44 -108 70 -131 119 -256 161 -409 17 -64 50 -174 74 -246 24 -71 53 -164
66 -205 12 -41 25 -79 29 -85 4 -5 15 -37 25 -70 9 -33 30 -98 46 -144 16 -46
29 -85 29 -87 0 -2 708 -4 1573 -4 l1572 0 10 23 c8 18 18 22 52 22 24 0 43
-3 43 -7 0 -19 32 -5 65 29 26 27 35 45 35 70 0 29 -3 32 -17 25 -10 -5 -30
-12 -46 -16 -23 -5 -29 -3 -36 16 l-8 23 -7 -23 c-4 -12 -12 -22 -17 -22 -14
0 -11 34 6 66 8 16 15 37 15 46 0 18 37 142 77 255 14 40 44 146 68 235 78
294 86 320 115 379 17 32 30 74 30 94 0 22 4 34 10 30 6 -3 10 -21 10 -38 0
-18 9 -45 20 -62 11 -16 20 -40 20 -52 0 -12 9 -27 20 -33 11 -6 20 -20 20
-31 0 -11 11 -24 25 -31 20 -9 25 -18 25 -48 0 -43 26 -72 65 -72 15 0 25 -6
25 -15 0 -8 47 -62 105 -120 58 -58 105 -108 105 -111 0 -11 51 -31 65 -26 30
12 96 -19 166 -78 78 -65 88 -81 64 -112 -15 -19 -15 -19 -42 5 -42 36 -65 46
-93 38 -14 -4 -19 -7 -13 -8 7 -1 16 -13 19 -27 5 -18 20 -32 48 -45 22 -10
48 -24 57 -30 22 -16 47 -5 59 26 13 35 41 29 52 -10 5 -16 9 -56 9 -87 0 -67
15 -75 54 -31 31 35 31 46 0 63 -29 16 -36 57 -7 44 9 -4 32 -7 51 -6 22 0 45
-8 66 -24 42 -32 55 -30 55 6 0 31 -5 33 -52 30 -31 -2 -37 14 -12 28 22 12
10 47 -22 68 -28 19 -31 36 -9 54 18 15 20 71 3 88 -7 7 -20 12 -29 12 -31 0
-31 18 1 51 31 33 35 52 24 108 -7 34 -24 42 -24 11 0 -23 -15 -27 -23 -6 -7
17 -81 56 -107 56 -25 0 -46 -36 -25 -44 8 -3 15 -1 15 4 0 12 40 14 40 3 1
-5 3 -25 6 -46 l6 -37 -28 11 c-16 5 -34 15 -41 21 -20 16 -25 5 -29 -59 -3
-61 3 -73 44 -73 20 0 23 4 20 28 -3 23 1 27 26 30 16 2 33 -1 39 -7 8 -8 8
-11 -1 -11 -7 0 -12 -16 -12 -40 0 -31 6 -47 24 -63 26 -24 45 -77 29 -77 -6
0 -18 9 -28 20 -10 11 -26 20 -34 18 -43 -6 -117 47 -147 104 -12 23 -17 26
-44 18 -19 -5 -47 -4 -82 6 -29 7 -66 12 -83 9 -27 -5 -34 0 -70 52 -22 32
-61 78 -87 104 -27 26 -48 51 -48 57 0 5 20 28 45 51 25 23 45 45 45 49 0 4
14 13 32 20 23 8 35 9 45 0 15 -12 73 9 125 44 14 10 32 18 40 18 7 0 19 9 26
20 11 17 10 20 -7 20 -21 0 -36 26 -20 35 5 4 22 5 37 3 18 -2 26 2 24 10 -1
7 7 25 18 39 15 19 20 21 20 9 0 -18 26 -22 32 -4 2 6 11 9 20 6 12 -5 14 -17
11 -55 -4 -39 -1 -53 16 -72 12 -13 21 -29 21 -36 0 -7 9 -20 19 -29 11 -10
25 -31 31 -47 12 -27 47 -43 37 -16 -2 6 0 20 5 30 6 12 4 26 -8 46 -15 25
-15 34 -5 60 12 27 10 36 -9 76 -17 35 -20 49 -11 58 13 13 15 77 3 77 -5 0
-14 -12 -21 -26 -9 -21 -14 -24 -26 -14 -7 6 -15 21 -17 32 -4 25 -28 37 -28
14 0 -19 -5 -20 -30 -6 -14 7 -25 7 -39 -2 -18 -11 -24 -9 -49 15 -15 15 -33
27 -39 27 -18 0 -26 19 -14 33 7 9 7 17 0 27 -8 11 -12 12 -16 3 -2 -7 -13
-13 -23 -13 -18 0 -60 -66 -60 -95 0 -7 -10 -15 -22 -17 -24 -3 -33 -33 -10
-33 37 0 -22 -69 -81 -94 -25 -11 -48 -24 -51 -30 -4 -6 -16 -11 -27 -11 -10
0 -19 -4 -19 -10 0 -5 -7 -10 -16 -10 -12 0 -15 -7 -11 -27 3 -18 0 -31 -11
-40 -26 -19 -52 -16 -52 6 0 21 -15 34 -41 36 -19 2 -49 28 -49 43 0 5 9 21
20 35 17 21 29 26 64 25 23 0 64 9 89 20 41 18 47 25 47 51 0 17 4 31 9 31 15
0 24 40 12 54 -7 9 -7 16 0 23 19 19 6 67 -21 80 -27 13 -43 7 -20 -7 12 -8
12 -10 -4 -10 -12 0 -16 -5 -12 -16 3 -9 -12 -45 -37 -87 -24 -40 -46 -80 -50
-89 -19 -52 -40 22 -27 93 6 32 4 37 -11 36 -10 -1 -20 -11 -23 -23 -8 -29
-71 -94 -92 -94 -13 0 -15 6 -11 29 4 18 2 31 -5 33 -14 5 12 48 29 48 6 0 21
15 32 33 11 18 30 44 42 57 11 14 27 37 35 53 8 15 19 27 26 27 7 0 8 14 4 40
-6 37 6 56 17 28 4 -10 6 -10 6 0 1 8 -8 27 -19 42 -15 21 -26 27 -42 22 -25
-6 -57 -40 -58 -59 0 -7 -4 -13 -8 -13 -5 0 -18 -17 -30 -39 -21 -37 -52 -71
-52 -57 0 22 44 97 79 136 22 25 41 50 41 56 0 6 9 19 20 29 12 11 20 31 20
50 0 20 6 35 15 39 8 3 15 12 15 21 0 8 6 15 14 15 18 0 30 31 16 40 -7 4 -1
17 16 35 23 25 24 29 10 37 -9 5 -14 13 -11 19 4 5 -4 8 -16 6 -22 -2 -33 21
-22 49 8 22 53 16 74 -8 19 -24 26 -88 9 -88 -5 0 -10 -8 -10 -18 0 -10 -5
-23 -12 -30 -9 -9 -4 -12 22 -12 30 -1 33 -2 19 -13 -25 -19 -33 -56 -16 -75
9 -9 16 -21 17 -27 0 -5 10 -9 20 -7 13 2 20 -2 20 -13 0 -11 -5 -15 -14 -12
-10 4 -13 1 -9 -8 3 -8 9 -12 14 -9 5 3 9 0 9 -5 0 -14 -17 -14 -25 -1 -11 17
-35 11 -35 -9 0 -13 5 -18 18 -15 34 8 44 -9 28 -48 -15 -34 -14 -36 4 -41 11
-3 30 3 43 13 19 16 20 21 9 40 -10 17 -10 21 3 26 20 8 20 68 0 88 -8 8 -15
28 -15 45 0 16 -4 33 -10 36 -5 3 -10 19 -10 35 0 15 -5 30 -10 32 -6 2 -14
27 -19 56 -4 29 -17 61 -27 72 -10 10 -25 26 -31 34 -9 10 -23 13 -47 9 -19
-3 -47 -2 -62 1 l-27 7 32 33 c17 17 31 37 31 43 0 6 11 20 25 30 23 16 24 21
14 56 -5 20 -14 37 -18 37 -12 0 -20 49 -10 56 5 2 11 -6 15 -20 3 -15 30 -41
67 -67 34 -24 94 -68 132 -99 39 -31 90 -70 115 -87 25 -17 53 -40 63 -51 10
-11 38 -32 62 -47 24 -15 48 -37 55 -49 6 -12 40 -39 76 -61 36 -22 79 -52 97
-67 18 -16 35 -28 40 -28 4 0 7 -11 7 -25 0 -16 6 -25 16 -25 8 0 12 5 9 10
-10 15 4 12 46 -12 22 -12 39 -29 39 -39 0 -25 27 -44 43 -30 11 8 18 7 31 -7
9 -10 13 -22 9 -25 -3 -4 1 -7 10 -7 10 0 25 -9 34 -19 9 -11 22 -17 29 -14 7
2 17 -5 23 -16 6 -11 29 -30 51 -42 89 -50 19 -41 -79 10 -31 16 -76 40 -101
53 -25 12 -49 27 -55 31 -88 68 -186 137 -195 137 -6 0 45 -56 115 -125 78
-77 135 -125 147 -125 17 0 20 -5 16 -29 -2 -17 -1 -28 3 -25 4 2 20 -13 36
-33 15 -21 31 -39 36 -41 4 -2 7 -12 7 -23 0 -16 5 -18 25 -13 18 5 25 2 25
-9 0 -8 3 -22 6 -30 4 -12 0 -14 -16 -10 -20 5 -21 4 -11 -15 7 -14 17 -19 28
-15 11 4 14 3 9 -5 -4 -7 -1 -12 7 -12 8 0 18 -12 21 -28 11 -45 50 -112 69
-118 9 -3 17 -14 17 -25 0 -10 5 -19 10 -19 27 0 -1 -83 -29 -86 -6 -1 -15 -2
-21 -3 -5 0 -7 -7 -4 -15 6 -14 49 -31 72 -27 21 3 14 -47 -7 -54 -13 -4 -18
-12 -14 -22 10 -25 73 -84 84 -78 5 4 9 -4 9 -17 0 -30 15 -52 29 -44 14 9 14
-14 1 -34 -6 -9 -13 -11 -17 -5 -9 11 -30 12 -53 1 -19 -8 -23 -74 -6 -92 8
-7 16 -10 20 -7 3 4 6 -1 6 -10 0 -28 18 -19 25 12 l6 28 34 -16 c24 -12 35
-25 39 -47 6 -31 -1 -64 -15 -74 -14 -10 -22 -60 -9 -60 19 0 40 -27 46 -59 4
-18 13 -31 21 -31 20 0 11 -24 -10 -28 -12 -3 -17 4 -17 21 0 27 -23 52 -40
42 -17 -10 -12 -30 15 -55 13 -12 22 -27 19 -32 -8 -13 5 -78 16 -78 5 0 17
13 26 29 19 31 44 31 44 0 0 -10 5 -19 11 -19 7 0 8 -11 4 -30 -5 -23 -3 -30
9 -30 9 0 16 -7 16 -15 0 -8 7 -15 15 -15 8 0 15 -9 15 -20 0 -11 7 -20 15
-20 8 0 15 7 15 17 0 15 1 15 18 0 16 -15 50 -17 270 -17 l252 0 0 1110 -1
1110 -30 0 c-45 0 -48 26 -5 64 62 57 45 86 -51 86 -38 0 -43 3 -43 23 0 13
-9 32 -20 42 -11 10 -17 21 -15 25 6 9 -48 30 -76 30 -10 0 -29 11 -43 25 -14
14 -32 25 -39 25 -8 0 -95 40 -193 90 -99 49 -188 90 -199 90 -11 0 -33 7 -49
15 -15 8 -35 15 -42 15 -8 0 -14 5 -14 10 0 6 -12 10 -26 10 -14 0 -23 4 -19
9 9 16 85 9 82 -7 -1 -8 7 -16 17 -18 10 -1 22 -6 25 -11 8 -10 51 -12 51 -2
0 4 -6 10 -12 12 -8 3 -7 6 4 6 9 1 20 -4 23 -9 4 -6 15 -8 24 -5 10 3 28 -4
42 -15 69 -59 179 -120 284 -157 38 -14 79 -31 90 -38 11 -7 32 -16 48 -19 15
-4 53 -19 85 -33 31 -15 60 -27 64 -28 4 0 14 -9 22 -20 14 -19 15 -15 16 43
0 39 -4 62 -11 62 -6 0 -9 7 -5 15 3 10 -1 15 -12 16 -13 0 -11 3 6 9 l22 9 0
2287 0 2287 -22 -19 c-105 -88 -132 -111 -188 -154 -25 -19 -76 -65 -113 -102
-37 -38 -74 -68 -82 -68 -7 0 -17 -9 -20 -20 -3 -11 -10 -20 -15 -20 -4 0 -32
-22 -61 -50 -29 -27 -58 -50 -65 -50 -6 0 -35 -24 -65 -53 -107 -104 -258
-239 -310 -279 -30 -22 -77 -61 -104 -87 -28 -25 -77 -66 -109 -91 -32 -25
-84 -66 -115 -92 -31 -27 -66 -48 -79 -48 -55 0 -77 -34 -48 -75 22 -33 45
-165 29 -165 -5 0 -9 14 -10 31 -1 18 -9 41 -16 53 -8 11 -16 44 -20 71 -4 43
-11 55 -48 89 -41 35 -47 38 -89 32 -25 -3 -58 -15 -73 -27 -32 -24 -57 -31
-109 -31 -21 0 -43 -6 -49 -14 -9 -11 -14 -11 -25 -1 -7 7 -20 17 -27 23 -8 7
-14 27 -13 45 1 30 8 39 64 77 75 49 109 53 217 22 38 -11 75 -20 81 -20 10 0
50 36 197 176 43 41 92 81 109 90 56 29 243 234 243 267 0 18 -10 25 -60 40
-129 38 -167 73 -200 182 -15 51 -11 73 17 93 20 15 24 71 7 103 -5 11 -12 95
-13 187 -4 194 -10 233 -40 261 -12 12 -60 32 -106 46 -46 14 -93 32 -106 39
-31 21 -37 65 -38 276 -1 168 -3 189 -23 225 -11 22 -30 49 -42 59 -12 11 -21
24 -21 30 0 7 -8 19 -17 28 -54 52 -63 75 -88 232 -18 110 -44 159 -80 149
-50 -14 -65 -24 -71 -46 -3 -14 -28 -49 -55 -78 -27 -29 -49 -60 -49 -68 0 -8
-10 -25 -21 -37 -18 -19 -25 -21 -42 -12 -29 15 -52 44 -78 99 -12 26 -32 52
-45 58 -13 6 -24 18 -24 27 0 17 -128 144 -146 144 -6 0 -24 18 -39 40 -15 22
-32 40 -36 40 -5 0 -12 17 -15 39 -4 24 -21 55 -46 84 -43 51 -169 157 -227
190 -33 20 -64 44 -95 73 -23 22 -156 103 -201 123 -62 28 -91 27 -98 -1 -8
-30 20 -54 63 -54 25 1 36 -4 38 -16 5 -24 -39 -24 -74 -2 -14 10 -55 19 -95
22 -62 4 -72 8 -94 34 -14 16 -25 36 -25 44 0 23 28 16 46 -11 9 -14 20 -25
25 -25 17 0 9 24 -18 52 -29 30 -21 35 35 19 20 -6 32 -6 32 0 0 5 -4 9 -9 9
-14 0 0 43 23 67 13 14 33 23 52 23 38 0 44 15 44 110 0 72 -18 269 -29 315
-4 18 -17 35 -32 42 -41 20 -148 24 -204 8z m-295 -359 c0 -8 17 -17 43 -22
23 -4 47 -9 52 -10 6 -1 20 -2 32 -3 12 0 28 -7 35 -13 24 -22 56 -38 60 -28
2 4 19 1 38 -7 19 -9 40 -15 46 -14 6 0 19 -8 29 -19 18 -20 18 -21 0 -34 -12
-9 -16 -20 -12 -32 5 -13 0 -10 -16 8 -16 20 -28 26 -44 22 -18 -5 -25 -1 -33
20 -9 24 -13 26 -47 21 -21 -3 -60 -2 -88 4 -33 6 -54 6 -62 -1 -8 -7 -22 -5
-44 6 -26 13 -34 14 -40 4 -7 -10 -15 -10 -41 1 -18 7 -42 15 -53 16 -95 11
-145 28 -145 50 0 21 33 19 63 -5 21 -16 35 -19 87 -15 40 4 67 1 76 -6 16
-13 16 -13 19 18 4 35 14 53 30 53 8 0 15 -6 15 -14z m-1880 -608 c-7 -18 -18
-78 -24 -133 -11 -99 -11 -100 -44 -116 -43 -22 -72 -56 -72 -86 0 -27 -17
-31 -22 -5 -3 13 -8 11 -24 -14 l-20 -32 -11 24 c-10 21 -7 30 23 68 23 30 43
46 61 48 29 3 84 69 64 76 -6 2 -11 8 -11 14 0 6 6 8 13 5 8 -3 14 1 14 8 0 7
-6 11 -12 9 -24 -9 -35 20 -24 61 10 35 86 121 97 110 2 -2 -1 -19 -8 -37z
m110 -2914 c48 -9 151 -11 157 -2 8 14 33 8 33 -7 0 -8 8 -14 18 -13 47 4 57
-2 59 -35 1 -17 -1 -27 -5 -22 -9 13 -45 13 -63 -1 -16 -13 -179 -17 -179 -5
0 5 -11 6 -25 3 -17 -3 -27 1 -31 13 -4 9 -17 21 -30 26 -13 4 -24 15 -24 24
0 18 12 19 28 3 9 -9 12 -9 12 0 0 7 -4 12 -10 12 -5 0 -10 5 -10 11 0 6 8 8
18 5 9 -2 33 -8 52 -12z m4101 -535 c5 -8 9 -27 9 -43 0 -24 -3 -27 -22 -23
-27 7 -84 -34 -142 -100 -21 -23 -47 -45 -58 -48 -11 -4 -17 -13 -14 -20 3 -9
0 -12 -8 -9 -7 3 -21 -5 -31 -16 -16 -18 -17 -20 -2 -14 19 7 25 -20 7 -31
-16 -10 -12 -25 6 -25 9 0 23 8 30 17 7 10 16 14 20 10 5 -4 4 -11 -1 -15 -12
-8 -32 -39 -45 -69 -5 -13 -18 -23 -29 -23 -12 0 -25 -11 -33 -27 -7 -15 -38
-44 -68 -65 -30 -21 -74 -56 -98 -78 -54 -50 -61 -51 -23 -2 16 20 33 49 36
65 4 15 11 30 16 33 13 8 99 143 99 156 0 19 57 124 83 152 14 15 27 40 29 54
3 25 7 27 50 27 57 0 83 19 54 41 -11 8 -28 14 -38 14 -21 0 -23 12 -6 40 11
17 22 19 91 16 54 -2 82 -7 88 -17z m-456 -149 c-2 -17 -7 -46 -10 -63 -9 -40
-67 -157 -78 -157 -5 0 -17 -10 -28 -22 -17 -21 -19 -21 -13 -3 5 18 3 18 -12
-2 -11 -16 -26 -23 -48 -22 -17 0 -24 3 -16 6 8 3 23 14 34 25 11 10 23 18 28
18 4 0 5 6 2 14 -3 7 6 23 20 33 14 11 22 23 19 27 -3 3 -1 6 5 6 7 0 12 7 12
15 0 8 3 15 8 15 4 0 8 14 9 32 1 17 7 34 13 38 5 3 17 31 26 61 14 47 18 51
25 32 4 -12 6 -36 4 -53z m-1325 -1129 c0 -10 7 -24 15 -31 8 -7 15 -28 15
-47 0 -33 -1 -34 -30 -28 -25 5 -29 4 -24 -9 3 -9 12 -16 18 -16 20 0 6 -61
-20 -93 -13 -16 -24 -35 -24 -43 0 -8 -4 -14 -10 -14 -5 0 -9 3 -9 8 1 4 1 14
0 22 -1 13 -2 13 -11 0 -5 -8 -7 -22 -5 -31 3 -8 -5 -26 -17 -39 -19 -20 -23
-22 -26 -8 -4 19 -55 35 -60 19 -2 -6 -8 -11 -14 -11 -6 0 -8 7 -4 15 4 10 -5
22 -27 35 -38 24 -50 22 -57 -11 -7 -28 -50 -53 -64 -39 -23 23 -37 11 -30
-25 7 -40 1 -43 -41 -15 -16 11 -40 20 -52 20 -25 0 -26 1 -17 25 5 12 9 14
14 4 6 -9 12 -8 25 4 15 16 15 17 -4 17 -12 0 -21 5 -21 10 0 6 7 10 15 10 8
0 15 5 15 11 0 6 -7 9 -14 6 -9 -4 -17 2 -21 14 -7 20 -25 27 -25 8 0 -5 -5
-7 -11 -3 -16 9 29 44 56 43 11 0 14 -3 8 -6 -19 -7 -15 -19 6 -19 11 0 18 3
15 7 -2 4 4 10 15 14 10 3 21 14 24 24 6 24 68 37 82 17 6 -7 19 -15 30 -17
12 -3 21 -14 23 -27 2 -15 10 -22 25 -21 17 1 18 2 5 6 -28 7 -22 33 7 33 17
0 25 6 25 17 0 13 3 14 12 5 7 -7 21 -12 31 -12 16 0 17 -2 7 -15 -15 -19 -7
-30 16 -21 11 4 14 13 10 31 -4 14 -2 25 4 25 5 0 10 -4 10 -10 0 -5 4 -10 8
-10 5 0 9 14 10 31 1 42 9 47 21 15 10 -25 41 -37 41 -16 0 6 -6 10 -14 10
-10 0 -13 15 -13 55 0 30 4 55 9 55 4 0 8 6 8 14 0 13 13 23 33 25 4 1 7 -7 7
-18z m-2958 -583 c10 -28 23 -55 28 -58 6 -4 8 -14 5 -22 -4 -9 0 -18 9 -21 9
-4 13 -12 10 -20 -3 -8 2 -19 10 -26 8 -7 12 -19 9 -27 -3 -8 0 -14 6 -14 7 0
11 -6 10 -12 -3 -29 2 -45 26 -70 14 -15 25 -30 25 -33 0 -4 14 -26 31 -50 26
-36 29 -46 20 -64 -10 -18 -9 -21 7 -21 11 0 27 -11 36 -25 20 -30 20 -39 1
-31 -9 3 -15 0 -15 -9 0 -8 6 -15 14 -15 8 0 16 -3 19 -7 2 -5 2 -2 1 5 -5 18
13 15 20 -4 9 -24 7 -35 -6 -33 -7 1 -21 1 -31 0 -17 -1 -17 -3 3 -31 13 -18
26 -27 35 -23 10 3 15 -1 15 -14 0 -23 48 -83 66 -83 8 0 14 -4 14 -9 0 -5 10
-13 22 -17 20 -6 20 -7 3 -16 -14 -8 -15 -12 -4 -19 8 -5 21 -6 30 -3 12 3 20
-5 29 -28 21 -55 20 -58 -6 -52 -13 3 -24 2 -24 -4 0 -12 30 -26 51 -23 9 1
19 -5 22 -13 4 -10 13 -13 24 -10 16 5 15 3 -2 -11 -16 -13 -22 -13 -30 -3 -8
10 -85 21 -85 12 0 -18 17 -34 36 -34 30 0 31 -17 2 -23 l-23 -4 22 -8 c13 -4
21 -11 18 -15 -3 -5 4 -6 15 -3 11 3 20 0 20 -6 0 -6 7 -11 15 -11 8 0 15 -4
15 -10 0 -5 -4 -10 -9 -10 -5 0 -11 -8 -13 -17 -3 -16 -6 -15 -23 5 -11 12
-25 22 -31 22 -16 0 -25 -25 -13 -37 6 -6 4 -15 -7 -24 -10 -8 -15 -9 -11 -3
4 7 -5 28 -19 49 -15 23 -20 35 -11 32 13 -5 13 -2 0 24 -8 16 -19 27 -24 23
-14 -8 -39 15 -39 35 1 14 2 14 11 -1 9 -16 11 -16 29 2 27 27 25 33 -6 26
-23 -6 -26 -4 -21 13 3 12 1 18 -4 15 -12 -7 -41 15 -34 27 3 4 13 5 22 2 12
-5 12 -2 -3 15 -10 12 -23 22 -29 22 -19 0 -62 53 -63 78 0 12 3 22 9 22 22 0
6 18 -21 23 -20 5 -28 11 -24 21 3 8 0 17 -5 21 -6 3 -9 10 -7 14 3 4 -6 14
-19 21 -15 8 -25 22 -25 36 0 13 -4 26 -10 29 -5 3 -10 23 -10 43 0 20 -9 51
-19 69 -11 17 -20 40 -20 50 1 10 -11 50 -26 88 -33 85 -61 198 -70 285 -8 74
0 73 27 -2z m3518 -648 c6 -11 17 -20 25 -20 8 0 21 -13 29 -29 9 -16 22 -31
31 -35 8 -3 20 -16 26 -28 18 -42 36 -69 63 -97 23 -24 25 -33 20 -74 -5 -36
-2 -55 15 -87 23 -45 26 -54 11 -45 -6 4 -11 -9 -12 -32 0 -21 -2 -42 -3 -48
-2 -5 -3 -21 -4 -35 -2 -35 -15 -52 -34 -44 -18 7 -24 54 -7 54 18 0 10 18
-11 23 -17 5 -19 9 -9 27 9 17 7 25 -9 46 -20 26 -20 76 1 117 8 16 -4 23 -34
18 -4 0 -18 3 -32 8 -22 9 -33 36 -42 106 0 6 -11 30 -22 55 -12 25 -22 53
-22 62 0 9 -4 20 -10 23 -5 3 -10 17 -10 31 0 29 25 32 40 4z"/>
<path d="M1507 9769 c-31 -18 -60 -87 -52 -128 4 -20 10 -40 14 -46 4 -5 13
-29 19 -52 14 -48 64 -96 96 -91 11 2 21 8 21 15 0 6 3 15 8 19 11 11 9 163
-3 204 -19 65 -65 101 -103 79z"/>
<path d="M1223 8765 c-34 -15 -44 -28 -67 -96 -24 -69 -21 -89 12 -89 35 0 89
39 141 103 44 53 44 70 -1 86 -39 14 -46 13 -85 -4z"/>
<path d="M7989 8469 c0 -2 -3 -17 -5 -34 -3 -16 -12 -34 -20 -38 -8 -4 -14
-20 -14 -34 0 -31 -90 -123 -120 -123 -21 0 -27 -15 -10 -25 6 -4 9 -30 8 -58
-1 -29 2 -71 6 -94 4 -23 4 -48 -1 -55 -10 -16 -11 -78 0 -71 4 2 6 -8 5 -24
-3 -38 9 -55 33 -48 17 6 19 1 19 -42 0 -27 -6 -57 -14 -68 -7 -11 -16 -32
-19 -46 -4 -15 -15 -29 -25 -31 -31 -8 -66 -137 -59 -215 5 -53 3 -69 -13 -96
-33 -54 -28 -153 15 -261 21 -55 35 -107 35 -134 l0 -45 42 7 c39 6 168 71
168 84 0 4 17 18 38 31 20 13 55 36 77 50 22 14 42 29 45 32 3 3 14 11 25 17
11 5 29 28 40 49 27 51 77 127 87 131 11 5 53 90 62 124 3 14 -1 64 -9 110 -8
45 -15 97 -15 114 0 31 -24 59 -87 102 -53 37 -93 108 -93 165 0 44 32 127 49
127 12 0 77 66 88 90 20 42 22 93 5 122 -22 37 -63 40 -142 11 -29 -11 -40
-11 -47 0 -9 14 -38 33 -71 47 -24 10 -65 72 -67 102 -2 16 -14 38 -16 27z"/>
<path d="M1837 6232 c-5 -7 -13 -10 -18 -6 -27 17 -72 -69 -84 -162 -13 -103
-11 -171 8 -192 9 -10 17 -26 17 -35 0 -21 22 -70 35 -79 5 -4 10 -13 10 -19
0 -7 6 -14 13 -17 10 -3 11 10 7 60 -7 66 4 140 19 137 11 -1 26 21 26 40 0 7
-6 11 -13 8 -15 -6 -42 7 -42 20 -1 4 -6 18 -13 29 -6 12 -9 39 -6 60 3 22 5
51 5 66 0 16 5 27 12 25 7 -1 11 5 11 14 -1 12 7 16 34 15 19 -1 37 -7 40 -13
2 -7 -1 -13 -7 -13 -6 0 -11 -7 -11 -15 0 -9 9 -15 21 -15 21 0 21 0 -2 -36
-22 -36 -22 -37 -3 -51 16 -12 17 -15 4 -23 -10 -7 -11 -10 -2 -10 6 0 12 -11
12 -25 0 -14 2 -25 4 -25 2 0 11 -3 20 -6 10 -4 16 -1 16 10 0 10 -6 13 -15
10 -10 -4 -15 0 -15 11 0 9 4 14 9 11 5 -3 15 2 22 11 10 12 11 17 3 20 -7 2
0 17 17 35 15 17 25 36 22 41 -3 5 4 4 16 -2 41 -22 20 4 -48 62 -12 9 -25 17
-30 17 -5 0 -11 4 -13 9 -1 5 -10 11 -18 13 -8 2 -18 8 -22 13 -5 6 -11 5 -17
-4 -7 -11 -10 -10 -13 5 -2 14 -6 16 -11 6z"/>
<path d="M1581 5900 c-27 -23 -70 -25 -126 -5 -35 12 -43 12 -62 -1 -23 -15
-28 -38 -24 -115 1 -19 -5 -54 -15 -78 -13 -33 -14 -45 -5 -54 12 -12 93 -15
241 -8 41 2 90 0 108 -4 21 -5 32 -4 32 4 0 6 -4 11 -10 11 -5 0 -12 17 -15
38 -3 20 -12 48 -19 62 -7 14 -21 52 -30 85 -10 33 -19 66 -22 73 -5 17 -25
14 -53 -8z"/>
<path d="M4642 5468 c-7 -27 -8 -44 -2 -46 6 -2 10 -14 10 -26 0 -23 28 -57
100 -119 24 -21 56 -57 72 -79 16 -22 31 -38 33 -36 9 8 -13 112 -24 116 -6 2
-11 9 -11 15 0 6 -12 23 -27 39 -17 17 -26 39 -26 58 0 18 -5 30 -14 30 -7 0
-13 4 -13 9 0 5 -12 11 -27 13 -20 2 -33 13 -44 36 l-17 32 -10 -42z"/>
<path d="M4448 5128 c-12 -10 -29 -16 -35 -13 -7 2 -13 0 -13 -5 0 -11 -36
-50 -46 -50 -3 0 -2 6 2 13 11 17 -26 -12 -48 -37 -11 -14 -27 -20 -52 -19
-33 1 -36 -1 -31 -20 6 -20 5 -21 -8 -5 -8 10 -17 15 -20 11 -4 -3 -7 -1 -7 5
0 17 -27 15 -34 -3 -3 -8 -14 -15 -24 -15 -10 0 -22 -4 -27 -9 -6 -6 -23 -3
-45 7 -19 9 -39 16 -45 17 -5 0 -38 7 -72 14 -34 7 -77 11 -95 7 -18 -4 -44
-8 -58 -9 -36 -5 -70 -25 -70 -42 0 -22 39 -87 68 -115 16 -15 35 -23 49 -22
13 2 36 -3 52 -11 21 -11 32 -12 40 -4 8 8 11 5 11 -11 0 -12 5 -22 10 -22 6
0 10 7 10 15 0 8 5 15 10 15 6 0 10 -8 10 -18 0 -23 45 -66 59 -58 13 9 72
-22 89 -45 17 -25 32 -24 32 2 0 11 5 17 10 14 6 -4 8 -11 4 -16 -3 -5 -1 -15
4 -22 18 -23 25 -79 11 -88 -12 -8 -11 -11 1 -19 21 -14 34 -7 38 18 4 25 30
30 38 7 7 -18 45 -20 42 -2 -2 7 9 12 28 12 21 0 30 4 27 12 -6 16 9 17 24 2
9 -9 16 -8 28 5 15 14 15 16 1 16 -9 0 -16 5 -16 10 0 6 9 10 20 10 11 0 20
-7 20 -15 0 -10 10 -15 30 -15 22 0 33 -6 39 -22 4 -13 10 -17 14 -11 5 8 17
8 42 0 19 -5 32 -13 30 -17 -3 -4 2 -13 10 -20 12 -10 18 -10 30 0 8 6 18 9
24 6 5 -3 21 -2 34 3 18 7 27 7 30 -2 3 -9 9 -8 22 3 14 11 19 12 22 3 9 -27
22 -11 16 20 -7 41 -19 55 -46 59 -22 3 -25 21 -18 91 1 15 60 52 68 43 7 -7
43 38 43 53 0 6 6 11 14 11 15 0 29 27 21 40 -3 5 -2 11 3 14 9 5 8 65 -3 154
-7 54 -26 75 -48 53 -8 -8 -5 -11 14 -11 21 -1 22 -2 6 -11 -10 -6 -25 -8 -34
-5 -9 4 -23 0 -32 -8 -9 -8 -38 -17 -65 -21 -27 -3 -52 -8 -57 -11 -5 -3 -9 1
-9 8 0 16 -79 107 -80 92 0 -7 -15 -9 -44 -4 -34 5 -49 3 -68 -12z"/>
<path d="M6595 1918 c6 -17 4 -20 -10 -14 -44 17 -36 -31 14 -87 22 -23 38
-32 58 -31 26 1 29 5 25 34 -1 6 -13 10 -26 10 -20 0 -24 6 -28 35 -2 20 -2
38 0 40 3 2 19 -6 36 -19 17 -13 65 -41 106 -63 41 -22 96 -52 123 -67 66 -37
59 -16 -10 30 -32 22 -60 41 -63 44 -10 10 -69 50 -74 50 -3 0 -28 14 -56 30
-28 17 -62 30 -76 30 -21 0 -24 -3 -19 -22z"/>
<path d="M147 922 c-9 -2 -17 -12 -17 -23 0 -10 -5 -19 -12 -19 -9 0 -9 -3 0
-12 19 -19 15 -109 -7 -144 -25 -41 -66 -81 -91 -89 -19 -6 -21 -13 -18 -68 2
-37 8 -62 16 -65 6 -2 12 3 12 11 0 29 40 46 118 48 28 1 29 17 0 21 -25 4
-31 29 -16 67 5 14 12 40 15 56 3 17 11 33 18 38 17 9 49 92 41 105 -6 10 18
24 43 26 20 1 26 26 7 26 -9 0 -19 7 -22 15 -6 14 -37 16 -87 7z"/>
<path d="M6233 860 c4 -20 19 -45 36 -60 18 -15 31 -37 33 -55 1 -16 14 -50
29 -75 34 -60 41 -90 23 -97 -12 -5 -89 66 -97 90 -7 21 -97 -47 -176 -132
-121 -132 -123 -135 -111 -166 5 -14 10 -40 10 -56 0 -19 5 -29 15 -29 8 0 15
-4 15 -9 0 -15 49 -19 69 -4 22 15 18 38 -11 64 -10 9 -18 24 -18 33 0 9 -8
16 -19 16 -32 0 -34 18 -4 46 15 14 28 30 28 34 0 5 5 14 12 21 9 9 13 6 19
-15 3 -14 11 -26 17 -26 6 0 18 -7 28 -16 10 -9 39 -18 66 -20 54 -5 103 -22
103 -36 0 -5 19 -18 43 -28 35 -16 50 -17 80 -9 46 12 52 42 8 33 -21 -5 -38
0 -59 15 -17 11 -42 21 -56 21 -17 0 -39 13 -61 34 -31 31 -37 33 -72 26 -20
-5 -39 -7 -41 -5 -8 7 -22 88 -17 93 3 3 5 -2 5 -11 0 -21 9 -22 24 -1 11 14
15 14 41 0 78 -39 117 -56 133 -56 10 0 27 -7 38 -15 28 -21 41 -18 48 10 7
28 36 34 56 10 12 -14 15 -14 31 1 19 17 52 12 77 -12 7 -8 33 -14 57 -14 35
0 43 3 39 15 -4 10 -19 15 -43 15 -28 0 -40 6 -51 24 -13 20 -78 91 -314 340
l-39 41 6 -35z"/>
<path d="M1555 748 c7 -27 -67 -131 -134 -190 -23 -20 -41 -41 -41 -48 0 -8
-9 -10 -27 -5 -45 11 -76 11 -80 -1 -2 -6 14 -15 34 -20 31 -7 39 -14 41 -37
4 -35 21 -43 106 -50 54 -5 73 -3 85 8 35 33 80 65 90 65 6 0 11 4 11 9 0 5 9
7 20 4 25 -7 25 2 1 28 l-19 21 -7 -21 c-11 -35 -28 -25 -22 13 3 20 0 41 -7
51 -11 16 -15 15 -39 -8 -19 -17 -25 -30 -21 -42 5 -11 1 -21 -10 -27 -9 -5
-14 -13 -11 -19 4 -5 -6 -14 -22 -20 -22 -8 -30 -7 -39 5 -6 9 -16 16 -23 16
-6 0 -11 7 -11 15 0 10 10 15 29 15 27 0 61 33 61 60 0 5 9 19 20 30 11 11 20
29 20 40 0 12 6 20 13 19 23 -4 47 13 47 34 0 16 -3 18 -12 9 -20 -20 -28 -14
-16 12 14 32 4 56 -22 56 -16 0 -19 -5 -15 -22z"/>
<path d="M750 463 c-8 -2 -25 -9 -37 -15 -14 -7 -39 -8 -70 -3 -79 14 -143 7
-195 -20 -61 -32 -75 -32 -54 0 18 27 12 30 -29 15 -23 -9 -25 -13 -15 -25 10
-12 9 -16 -1 -19 -8 -2 -48 -14 -89 -26 -55 -17 -100 -23 -168 -23 l-92 0 0
-158 c0 -153 1 -159 20 -159 11 0 23 -7 26 -15 5 -13 38 -15 214 -15 158 0
209 3 213 13 3 9 9 9 29 -1 32 -17 64 -12 60 10 -2 12 3 15 18 11 14 -4 20 0
20 11 0 13 6 15 25 10 16 -4 32 -1 43 8 9 8 30 19 45 26 23 10 29 9 33 -3 9
-23 26 -18 19 6 -5 16 -3 20 6 17 9 -3 14 -21 14 -51 0 -26 4 -46 10 -44 6 1
9 28 7 63 -3 59 -2 62 32 87 40 31 216 230 216 245 0 13 -25 22 -59 22 -15 0
-31 4 -37 9 -19 18 -168 36 -204 24z"/>
<path d="M1730 370 c0 -5 -7 -7 -16 -3 -10 4 -20 -1 -26 -11 -8 -14 -18 -16
-44 -11 -61 11 -120 -51 -80 -84 10 -8 19 -6 40 10 20 16 37 20 70 17 41 -3
43 -2 42 22 0 14 4 26 9 28 6 1 10 -10 10 -25 0 -31 15 -41 63 -42 43 -1 41
16 -8 67 -40 41 -60 52 -60 32z"/>
<path d="M1120 315 c-7 -8 -18 -15 -25 -15 -6 0 -23 -12 -37 -27 -13 -16 -41
-41 -61 -58 -20 -16 -41 -41 -46 -55 -23 -62 -24 -61 29 -33 28 15 50 33 50
41 0 11 8 13 30 9 29 -6 30 -5 30 28 0 24 6 37 20 45 11 6 20 19 20 30 0 10 6
20 13 23 9 3 9 8 1 16 -8 9 -14 8 -24 -4z"/>
<path d="M6869 256 c11 -24 24 -52 29 -62 12 -22 32 -125 32 -166 0 -25 3 -28
36 -28 19 0 44 5 54 10 13 7 33 7 62 0 24 -6 86 -10 138 -8 89 3 93 4 68 17
-22 11 -30 12 -43 1 -17 -14 -45 -7 -45 12 0 22 -48 38 -76 26 -33 -16 -99 28
-107 71 -6 26 -11 31 -36 31 -23 0 -31 6 -40 31 -12 34 -68 109 -81 109 -5 0
-1 -20 9 -44z"/>
<path d="M1410 200 c0 -11 -7 -23 -15 -26 -8 -3 -17 -14 -20 -25 -4 -10 -13
-19 -21 -19 -8 0 -14 -7 -14 -16 0 -9 -5 -12 -12 -8 -18 11 -48 12 -54 2 -7
-11 -44 -10 -44 2 0 6 -9 10 -20 10 -11 0 -20 5 -20 10 0 15 -38 12 -47 -4 -4
-8 -17 -15 -28 -18 -24 -4 -33 -37 -13 -49 7 -5 42 -6 78 -3 99 11 154 11 167
2 7 -6 18 -2 30 11 16 17 22 18 54 7 47 -16 72 -14 93 7 20 20 15 32 -25 52
-20 11 -29 23 -29 40 0 16 -6 25 -15 25 -8 0 -15 5 -15 10 0 6 -7 10 -15 10
-8 0 -15 -9 -15 -20z"/>
</g>
</svg>
